<svg width="24" height="24" viewBox="0 0 24 24" fill="none" xmlns="http://www.w3.org/2000/svg">
<path d="M2.25 21.0023H21.75M3.75 3.00232V21.0023M14.25 3.00232V21.0023M20.25 7.50232V21.0023M6.75 6.75232H7.5M6.75 9.75232H7.5M6.75 12.7523H7.5M10.5 6.75232H11.25M10.5 9.75232H11.25M10.5 12.7523H11.25M6.75 21.0023V17.6273C6.75 17.006 7.25368 16.5023 7.875 16.5023H10.125C10.7463 16.5023 11.25 17.006 11.25 17.6273V21.0023M3 3.00232H15M14.25 7.50232H21M17.25 11.2523H17.2575V11.2598H17.25V11.2523ZM17.25 14.2523H17.2575V14.2598H17.25V14.2523ZM17.25 17.2523H17.2575V17.2598H17.25V17.2523Z" stroke="#0F172A" stroke-width="1.5" stroke-linecap="round" stroke-linejoin="round"/>
</svg>
